<?xml version="1.0" standalone="no"?>
<!DOCTYPE svg PUBLIC "-//W3C//DTD SVG 20010904//EN"
 "http://www.w3.org/TR/2001/REC-SVG-20010904/DTD/svg10.dtd">
<svg version="1.0" xmlns="http://www.w3.org/2000/svg"
 width="500.000000pt" height="500.000000pt" viewBox="0 0 500.000000 500.000000"
 preserveAspectRatio="xMidYMid meet">

<g transform="translate(0.000000,500.000000) scale(0.100000,-0.100000)"
fill="#000000" stroke="none">
<path d="M1898 2983 l-178 -178 0 -73 c0 -57 -3 -72 -15 -72 -8 0 -109 0 -225
0 -115 0 -217 0 -225 0 -13 0 -15 34 -15 247 l0 248 -175 -175 -175 -175 0
-477 0 -478 175 0 175 0 0 245 0 245 240 0 240 0 0 -245 0 -245 190 0 190 0 0
486 0 486 168 -4 c190 -3 208 -10 237 -80 29 -72 1 -149 -66 -183 -19 -10 -63
-16 -139 -17 -60 -1 -110 -4 -110 -7 0 -3 152 -158 338 -344 l338 -338 298 1
c337 1 367 6 454 77 63 51 86 78 121 143 96 178 41 405 -124 515 -72 47 -123
63 -243 74 -119 11 -147 28 -147 92 0 67 8 69 301 69 l251 0 168 165 168 165
-439 0 c-373 0 -449 -2 -495 -16 -109 -32 -209 -118 -255 -218 -50 -110 -41
-266 22 -373 75 -129 231 -213 395 -213 83 0 116 -74 60 -131 l-29 -29 -203 0
-202 0 -123 122 -123 121 45 46 c70 71 105 153 112 259 10 181 -46 303 -174
378 -85 50 -123 56 -384 61 l-245 5 -177 -179z"/>
</g>
</svg>